<mxfile>
  <diagram name="Classe Carros">
    <mxGraphModel dx="2000" dy="1200" grid="1" gridSize="10" guides="1" tooltips="1" connect="1">
      <root>
        <mxCell id="0" />
        <mxCell id="1" parent="0" />
        <mxCell id="2" style="rounded=1;whiteSpace=wrap;html=1;" vertex="1" parent="1">
          <mxGeometry x="100" y="100" width="160" height="160" as="geometry" />
          <Carros>
            <Attributes>
              <Attribute>String marca</Attribute>
              <Attribute>public String modelo</Attribute>
              <Attribute>public ints==Lerntest AssertionError=<?xmlSins--)))</Attribute